<mxfile host="app.diagrams.net" modified="2023-07-22T13:40:16.941Z" agent="Mozilla/5.0 (Windows NT 10.0; Win64; x64) AppleWebKit/537.36 (KHTML, like Gecko) Chrome/115.0.0.0 Safari/537.36" etag="LDDogDdGJ9Tx1B-W_x8B" version="21.6.5" type="github" pages="2">
  <diagram id="C5RBs43oDa-KdzZeNtuy" name="Page-1">
    <mxGraphModel dx="1304" dy="718" grid="1" gridSize="10" guides="1" tooltips="1" connect="1" arrows="1" fold="1" page="1" pageScale="1" pageWidth="827" pageHeight="1169" math="0" shadow="0">
      <root>
        <mxCell id="WIyWlLk6GJQsqaUBKTNV-0" />
        <mxCell id="WIyWlLk6GJQsqaUBKTNV-1" parent="WIyWlLk6GJQsqaUBKTNV-0" />
        <mxCell id="5SKNjN2g-NxWEHicX-SF-8" value="" style="edgeStyle=orthogonalEdgeStyle;rounded=0;orthogonalLoop=1;jettySize=auto;html=1;entryX=-0.021;entryY=0.196;entryDx=0;entryDy=0;entryPerimeter=0;" parent="WIyWlLk6GJQsqaUBKTNV-1" source="5SKNjN2g-NxWEHicX-SF-0" target="5SKNjN2g-NxWEHicX-SF-4" edge="1">
          <mxGeometry relative="1" as="geometry">
            <mxPoint x="174" y="130" as="targetPoint" />
          </mxGeometry>
        </mxCell>
        <mxCell id="5SKNjN2g-NxWEHicX-SF-0" value="Механизатор" style="shape=actor;whiteSpace=wrap;html=1;align=center;labelPosition=center;verticalLabelPosition=bottom;verticalAlign=top;" parent="WIyWlLk6GJQsqaUBKTNV-1" vertex="1">
          <mxGeometry x="104" y="100" width="40" height="60" as="geometry" />
        </mxCell>
        <mxCell id="5SKNjN2g-NxWEHicX-SF-2" value="Диспетчер" style="shape=actor;whiteSpace=wrap;html=1;labelPosition=center;verticalLabelPosition=bottom;align=center;verticalAlign=top;" parent="WIyWlLk6GJQsqaUBKTNV-1" vertex="1">
          <mxGeometry x="104" y="200" width="40" height="60" as="geometry" />
        </mxCell>
        <mxCell id="5SKNjN2g-NxWEHicX-SF-4" value="Клиентская часть" style="rounded=0;whiteSpace=wrap;html=1;labelPosition=center;verticalLabelPosition=top;align=center;verticalAlign=bottom;" parent="WIyWlLk6GJQsqaUBKTNV-1" vertex="1">
          <mxGeometry x="194" y="90" width="140" height="200" as="geometry" />
        </mxCell>
        <mxCell id="5SKNjN2g-NxWEHicX-SF-5" value="m.openagro.ru" style="rounded=1;whiteSpace=wrap;html=1;" parent="WIyWlLk6GJQsqaUBKTNV-1" vertex="1">
          <mxGeometry x="204" y="120" width="120" height="20" as="geometry" />
        </mxCell>
        <mxCell id="5SKNjN2g-NxWEHicX-SF-6" value="openagro.ru" style="rounded=1;whiteSpace=wrap;html=1;" parent="WIyWlLk6GJQsqaUBKTNV-1" vertex="1">
          <mxGeometry x="204" y="220" width="120" height="20" as="geometry" />
        </mxCell>
        <mxCell id="5SKNjN2g-NxWEHicX-SF-11" value="" style="endArrow=classic;html=1;rounded=0;entryX=0;entryY=0.75;entryDx=0;entryDy=0;" parent="WIyWlLk6GJQsqaUBKTNV-1" edge="1">
          <mxGeometry width="50" height="50" relative="1" as="geometry">
            <mxPoint x="144" y="229.82999999999998" as="sourcePoint" />
            <mxPoint x="194" y="229.82999999999998" as="targetPoint" />
          </mxGeometry>
        </mxCell>
        <mxCell id="5SKNjN2g-NxWEHicX-SF-12" value="Серверная часть" style="rounded=0;whiteSpace=wrap;html=1;labelPosition=center;verticalLabelPosition=top;align=center;verticalAlign=bottom;" parent="WIyWlLk6GJQsqaUBKTNV-1" vertex="1">
          <mxGeometry x="394" y="90" width="140" height="200" as="geometry" />
        </mxCell>
        <UserObject label="api.openagro.ru" link="data:page/id,C5RBs43oDa-KdzZeNtuy" id="5SKNjN2g-NxWEHicX-SF-13">
          <mxCell style="rounded=1;whiteSpace=wrap;html=1;" parent="WIyWlLk6GJQsqaUBKTNV-1" vertex="1">
            <mxGeometry x="404" y="120" width="120" height="20" as="geometry" />
          </mxCell>
        </UserObject>
        <mxCell id="5SKNjN2g-NxWEHicX-SF-15" value="" style="endArrow=classic;startArrow=classic;html=1;rounded=0;entryX=-0.001;entryY=0.206;entryDx=0;entryDy=0;entryPerimeter=0;" parent="WIyWlLk6GJQsqaUBKTNV-1" target="5SKNjN2g-NxWEHicX-SF-12" edge="1">
          <mxGeometry width="50" height="50" relative="1" as="geometry">
            <mxPoint x="334" y="130" as="sourcePoint" />
            <mxPoint x="384" y="80" as="targetPoint" />
          </mxGeometry>
        </mxCell>
        <mxCell id="5SKNjN2g-NxWEHicX-SF-16" value="" style="endArrow=classic;startArrow=classic;html=1;rounded=0;exitX=0.996;exitY=0.703;exitDx=0;exitDy=0;exitPerimeter=0;entryX=-0.001;entryY=0.699;entryDx=0;entryDy=0;entryPerimeter=0;" parent="WIyWlLk6GJQsqaUBKTNV-1" source="5SKNjN2g-NxWEHicX-SF-4" target="5SKNjN2g-NxWEHicX-SF-12" edge="1">
          <mxGeometry width="50" height="50" relative="1" as="geometry">
            <mxPoint x="354" y="240" as="sourcePoint" />
            <mxPoint x="404" y="190" as="targetPoint" />
          </mxGeometry>
        </mxCell>
        <mxCell id="5SKNjN2g-NxWEHicX-SF-18" value="БД" style="rounded=0;whiteSpace=wrap;html=1;labelPosition=center;verticalLabelPosition=top;align=center;verticalAlign=bottom;" parent="WIyWlLk6GJQsqaUBKTNV-1" vertex="1">
          <mxGeometry x="584" y="90" width="140" height="200" as="geometry" />
        </mxCell>
        <mxCell id="5SKNjN2g-NxWEHicX-SF-17" value="files.openagro.ru" style="rounded=1;whiteSpace=wrap;html=1;" parent="WIyWlLk6GJQsqaUBKTNV-1" vertex="1">
          <mxGeometry x="594" y="150" width="120" height="20" as="geometry" />
        </mxCell>
        <mxCell id="5SKNjN2g-NxWEHicX-SF-20" value="PostgreSQL" style="rounded=1;whiteSpace=wrap;html=1;" parent="WIyWlLk6GJQsqaUBKTNV-1" vertex="1">
          <mxGeometry x="594" y="120" width="120" height="20" as="geometry" />
        </mxCell>
        <mxCell id="5SKNjN2g-NxWEHicX-SF-21" value="visio.openagro.ru" style="rounded=1;whiteSpace=wrap;html=1;" parent="WIyWlLk6GJQsqaUBKTNV-1" vertex="1">
          <mxGeometry x="404" y="150" width="120" height="20" as="geometry" />
        </mxCell>
        <mxCell id="5SKNjN2g-NxWEHicX-SF-22" value="" style="endArrow=classic;startArrow=classic;html=1;rounded=0;entryX=0;entryY=0.5;entryDx=0;entryDy=0;exitX=1;exitY=0.5;exitDx=0;exitDy=0;" parent="WIyWlLk6GJQsqaUBKTNV-1" source="5SKNjN2g-NxWEHicX-SF-12" target="5SKNjN2g-NxWEHicX-SF-18" edge="1">
          <mxGeometry width="50" height="50" relative="1" as="geometry">
            <mxPoint x="534" y="200" as="sourcePoint" />
            <mxPoint x="584" y="150" as="targetPoint" />
          </mxGeometry>
        </mxCell>
        <mxCell id="5SKNjN2g-NxWEHicX-SF-23" value="Микросервисная архитектура" style="text;html=1;strokeColor=none;fillColor=none;align=center;verticalAlign=middle;whiteSpace=wrap;rounded=0;fontSize=16;" parent="WIyWlLk6GJQsqaUBKTNV-1" vertex="1">
          <mxGeometry x="274" y="10" width="280" height="30" as="geometry" />
        </mxCell>
        <mxCell id="5SKNjN2g-NxWEHicX-SF-24" value="&lt;h1&gt;Расположение&lt;/h1&gt;&lt;p&gt;В целях разнесения и большей гибкости, отдельных модулей клиентскую и серверную часть можно размещать как на одной машине, так и на разных cерверах. Конфигурирование сервисов производится через NGINX.&lt;/p&gt;" style="text;html=1;strokeColor=none;fillColor=none;spacing=5;spacingTop=-20;whiteSpace=wrap;overflow=hidden;rounded=0;" parent="WIyWlLk6GJQsqaUBKTNV-1" vertex="1">
          <mxGeometry x="30" y="350" width="770" height="90" as="geometry" />
        </mxCell>
        <mxCell id="5SKNjN2g-NxWEHicX-SF-25" value="" style="endArrow=none;dashed=1;html=1;dashPattern=1 3;strokeWidth=2;rounded=0;" parent="WIyWlLk6GJQsqaUBKTNV-1" edge="1">
          <mxGeometry width="50" height="50" relative="1" as="geometry">
            <mxPoint x="10" y="320" as="sourcePoint" />
            <mxPoint x="820" y="320" as="targetPoint" />
          </mxGeometry>
        </mxCell>
      </root>
    </mxGraphModel>
  </diagram>
  <diagram id="dCPgAqNVoZJj9P8pJdWb" name="Страница 2">
    <mxGraphModel dx="1434" dy="790" grid="1" gridSize="10" guides="1" tooltips="1" connect="1" arrows="1" fold="1" page="1" pageScale="1" pageWidth="827" pageHeight="1169" math="0" shadow="0">
      <root>
        <mxCell id="0" />
        <mxCell id="1" parent="0" />
        <mxCell id="tDLG2StX8Nqfh8w9cV4a-1" value="&lt;font style=&quot;font-size: 16px;&quot;&gt;api.openagro.ru&lt;/font&gt;" style="text;html=1;strokeColor=none;fillColor=none;align=center;verticalAlign=middle;whiteSpace=wrap;rounded=0;" vertex="1" parent="1">
          <mxGeometry x="338" y="10" width="150" height="30" as="geometry" />
        </mxCell>
        <mxCell id="tDLG2StX8Nqfh8w9cV4a-2" value="&lt;h1&gt;Серверная часть openagro&lt;/h1&gt;&lt;p&gt;Запросы с frontend (клиентской части) приходят на текщее API&lt;/p&gt;" style="text;html=1;strokeColor=none;fillColor=none;spacing=5;spacingTop=-20;whiteSpace=wrap;overflow=hidden;rounded=0;" vertex="1" parent="1">
          <mxGeometry x="8" y="60" width="810" height="120" as="geometry" />
        </mxCell>
      </root>
    </mxGraphModel>
  </diagram>
</mxfile>
